<svg version="1.1" xmlns="http://www.w3.org/2000/svg" viewBox="0 0 594 350.5">
  <defs>
    <style>
      @font-face {
        font-family: "Virgil";
        src: url("https://excalidraw.com/FG_Virgil.ttf");
      }
      @font-face {
        font-family: "Cascadia";
        src: url("https://excalidraw.com/Cascadia.ttf");
      }
    </style>
  </defs>
  <rect x="0" y="0" width="594" height="350.5" fill="#ffffff"></rect><g transform="translate(13 53.5)"><path d="M0 0 C95.92607831088827 0, 191.85215662177654 0, 247 0 M0 0 C76.19197034658865 0, 152.3839406931773 0, 247 0 M247 0 C247 27.210960055235773, 247 54.42192011047155, 247 101 M247 0 C247 38.702745310124016, 247 77.40549062024803, 247 101 M247 101 C164.50648385556414 101, 82.01296771112828 101, 0 101 M247 101 C157.91416406212375 101, 68.82832812424749 101, 0 101 M0 101 C0 80.57447115695103, 0 60.148942313902076, 0 0 M0 101 C0 72.85259887212887, 0 44.70519774425774, 0 0" style="stroke: rgb(0, 0, 0); stroke-width: 4px; fill: none;"></path></g><g transform="translate(17 13.5)"><text x="0" y="28" font-family="Cascadia" font-size="28px" fill="#000000">Users</text></g><g transform="translate(26 68.5)"><text x="0" y="20" font-family="Cascadia" font-size="20px" fill="#000000">UserId</text></g><g transform="translate(10 221.5)"><path d="M0 0 C85.20942484773697 0, 170.41884969547394 0, 220 0 M0 0 C53.64487395249307 0, 107.28974790498614 0, 220 0 M220 0 C220 33.17002179399133, 220 66.34004358798266, 220 88 M220 0 C220 30.975086321681744, 220 61.95017264336349, 220 88 M220 88 C166.83852387033403 88, 113.67704774066806 88, 0 88 M220 88 C137.5739562753588 88, 55.147912550717564 88, 0 88 M0 88 C0 58.812382485717535, 0 29.62476497143507, 0 0 M0 88 C0 57.340651641041035, 0 26.68130328208207, 0 0" style="stroke: rgb(0, 0, 0); stroke-width: 4px; fill: none;"></path></g><g transform="translate(24.5 234.5)"><text x="0" y="20" font-family="Cascadia" font-size="20px" fill="#000000">UserId</text></g><g transform="translate(14 183.5)"><text x="0" y="28" font-family="Cascadia" font-size="28px" fill="#000000">Purchases</text></g><g transform="translate(24.5 265.5)"><text x="0" y="20" font-family="Cascadia" font-size="20px" fill="#000000">PurchaseId</text></g><g transform="translate(332.5 267.5)"><text x="0" y="20" font-family="Cascadia" font-size="20px" fill="#000000">ProductId</text></g><g transform="translate(320 220.5)"><path d="M0 0 C46.8488824095577 0, 93.6977648191154 0, 214 0 M0 0 C75.14233761765063 0, 150.28467523530125 0, 214 0 M214 0 C214 24.163642041385174, 214 48.32728408277035, 214 120 M214 0 C214 35.033302791416645, 214 70.06660558283329, 214 120 M214 120 C154.88497715331613 120, 95.76995430663227 120, 0 120 M214 120 C162.83758112452924 120, 111.67516224905849 120, 0 120 M0 120 C0 92.69583452492952, 0 65.39166904985905, 0 0 M0 120 C0 78.62759875506163, 0 37.25519751012325, 0 0" style="stroke: rgb(0, 0, 0); stroke-width: 4px; fill: none;"></path></g><g transform="translate(324 180.5)"><text x="0" y="28" font-family="Cascadia" font-size="28px" fill="#000000">LineItems</text></g><g transform="translate(330.5 233.5)"><text x="0" y="20" font-family="Cascadia" font-size="20px" fill="#000000">PurchaseId</text></g><g transform="translate(333.5 299.5)"><text x="0" y="20" font-family="Cascadia" font-size="20px" fill="#000000">Price</text></g><g transform="translate(26.5 102.5)"><text x="0" y="16" font-family="Helvetica" font-size="20px" fill="#000000">Name</text></g><g transform="translate(319 51.5)"><path d="M0 0 C57.21100780647248 0, 114.42201561294496 0, 217 0 M0 0 C58.01376950163395 0, 116.0275390032679 0, 217 0 M217 0 C217 20.681229858472943, 217 41.362459716945885, 217 86 M217 0 C217 20.738028014823794, 217 41.47605602964759, 217 86 M217 86 C169.85821355897934 86, 122.71642711795866 86, 0 86 M217 86 C133.98133084159343 86, 50.962661683186866 86, 0 86 M0 86 C0 52.02328595630824, 0 18.046571912616486, 0 0 M0 86 C0 66.92048603184521, 0 47.84097206369042, 0 0" style="stroke: rgb(54, 79, 199); stroke-width: 4px; fill: none;"></path></g><g transform="translate(321 10)"><text x="0" y="28" font-family="Cascadia" font-size="28px" fill="#364fc7">Products</text></g><g transform="translate(327 61)"><text x="0" y="20" font-family="Cascadia" font-size="20px" fill="#364fc7">ProductId</text></g><g transform="translate(327 91)"><text x="0" y="20" font-family="Cascadia" font-size="20px" fill="#364fc7">ProductName</text></g><g transform="translate(446 279.5)"></g><g transform="translate(582 278.5)"></g><g><g transform="translate(582 75.5)"><path d="M0 0 C-22.666666666666668 0, -113.33333333333333 0, -136 0 M0 0 C-22.666666666666668 0, -113.33333333333333 0, -136 0" style="stroke: rgb(0, 0, 0); stroke-width: 4px; fill: none;"></path></g><g transform="translate(582 75.5)"><path d="M-107.80922137642276 -10.260604299770062 C-114.91532275837366 -7.674194915062004, -122.02142414032458 -5.087785530353946, -136 0 M-107.80922137642276 -10.260604299770062 C-118.41340330054692 -6.400997720645158, -129.0175852246711 -2.541391141520255, -136 0" style="stroke: rgb(0, 0, 0); stroke-width: 4px; fill: none;"></path></g><g transform="translate(582 75.5)"><path d="M-107.80922137642276 10.260604299770062 C-114.91532275837366 7.674194915062004, -122.02142414032458 5.087785530353946, -136 0 M-107.80922137642276 10.260604299770062 C-118.41340330054692 6.400997720645158, -129.0175852246711 2.541391141520255, -136 0" style="stroke: rgb(0, 0, 0); stroke-width: 4px; fill: none;"></path></g></g><g transform="translate(154 277.5)"></g><g transform="translate(270 277.5)"></g><g><g transform="translate(268 246.5)"><path d="M0 0 C8.666666666666666 0, 43.333333333333336 0, 52 0 M0 0 C8.666666666666666 0, 43.333333333333336 0, 52 0" style="stroke: rgb(0, 0, 0); stroke-width: 4px; fill: none;"></path></g><g transform="translate(268 246.5)"><path d="M27.56799185956638 8.892523726467386 C35.69863406098226 5.933211979683378, 43.82927626239814 2.9739002328993687, 52 0 M27.56799185956638 8.892523726467386 C37.20878175987085 5.383563167942329, 46.84957166017533 1.8746026094172725, 52 0" style="stroke: rgb(0, 0, 0); stroke-width: 4px; fill: none;"></path></g><g transform="translate(268 246.5)"><path d="M27.56799185956638 -8.892523726467386 C35.69863406098226 -5.933211979683378, 43.82927626239814 -2.9739002328993687, 52 0 M27.56799185956638 -8.892523726467386 C37.20878175987085 -5.383563167942329, 46.84957166017533 -1.8746026094172725, 52 0" style="stroke: rgb(0, 0, 0); stroke-width: 4px; fill: none;"></path></g></g></svg>